<svg fill="none" height="12" viewBox="0 0 12 12" width="12" xmlns="http://www.w3.org/2000/svg"><path d="m6 0c-3.31379 0-6 2.68621-6 6s2.68621 6 6 6 6-2.68621 6-6-2.68621-6-6-6zm3.87097 5.21371v.16766c0 .14202-.08033.27194-.20734.33532l-.37234.18629c-.05913.0296-.12503.04301-.19102.03889-.066-.00412-.12972-.02563-.18471-.06235l-.44056-.29371c-.04753-.03166-.10165-.05206-.15825-.05964-.05659-.00759-.11418-.00217-.16836.01585l-.06412.02129c-.23467.07814-.33048.35782-.1933.56371l.32032.48048c.06944.10427.18653.16694.31186.16694h.19862c.2071 0 .375.1679.375.375v.27435c0 .08105-.02637.16016-.075.225l-.45338.60436c-.03436.04596-.05783.09919-.06847.15556l-.10403.55234c-.015.0796-.05541.15218-.11516.2071-.22928.20995-.43236.44683-.60484.70548l-.31525.47297c-.06131.092-.14437.1674-.24182.2196-.09745.0521-.20627.0794-.3168.0794-.25428 0-.48678-.1437-.60049-.3711-.13255-.2651-.20154-.55739-.20153-.85377v-.72315c0-.2071-.1679-.375-.375-.375h-.62613c-.35056 0-.68661-.13935-.9346-.3871-.24779-.24791-.38703-.58407-.38709-.93459v-.34016c0-.41589.19596-.80759.52863-1.05726l.66725-.50057c.22881-.17157.50708-.26436.79307-.26443h.02153c.20516 0 .40766.04766.59105.13959l.35613.17807c.08903.04451.19185.05177.28621.02032l1.1446-.38153c.15314-.05105.25645-.19427.25645-.35565 0-.20709-.16791-.375-.375-.375h-.24412c-.09943 0-.19475-.03943-.26516-.10983l-.16742-.16742c-.03481-.03483-.07615-.06246-.12165-.08131-.0455-.01884-.09426-.02854-.14351-.02853h-2.17863c-.20709 0-.375-.16791-.375-.375v-.10645c0-.17202.1171-.32202.28404-.36388l.34959-.08733c.09049-.02275.16936-.07815.22113-.15581l.19548-.29298c.06944-.10428.18654-.16694.31186-.16694h.58573c.20709 0 .375-.1679.375-.375v-.525c1.91661.31065 3.45606 1.7475 3.91746 3.60992h-.4459c-.2071 0-.37503.1679-.37503.375z" fill="#b3b3b3"></path></svg>