<svg fill="none" width="24" height="24" viewBox="0 0 24 24" xmlns="http://www.w3.org/2000/svg"><path d="m17.0117 9.01837c-.76.00568-1.4699.07463-2.0349.15177.003-.00797.006-.01596.009-.02398.0935-.24868.1905-.51367.2645-.75261.0659-.21319.1439-.49654.1439-.74592 0-.57045-.0945-1.60667-.3174-2.57583-.1116-.48517-.2621-.98431-.4653-1.41081-.1912-.40142-.486-.8617-.9527-1.10288-.3793-.19658-.741-.30802-1.2445-.30802-.7374 0-1.314.28324-1.6099.59405-.1681.17358-.2236.3755-.2474.50408-.0245.13194-.032.28293-.0335.44395-.003.32983.0199.86112.0727 1.7259l.0007.01151.0011.01148.1748 1.89847c-.0075.19948-.0932.46978-.2965.84918-.1725.32183-.3912.65555-.64067 1.03637-.05724.08737-.1161.17721-.17641.26996-.60481.93016-1.35659 2.14206-1.35659 3.51366v4.2506c0 1.365 1.33452 2.5703 3.27627 2.5703h4.8843c.6135 0 1.1226-.0469 1.5373-.2377.4662-.2146.7097-.5603.8933-.8768v.0001l.0037-.0066c.1818-.3206.2721-.6573.2509-1.0074-.0028-.0459-.0074-.0909-.0136-.1349.4467-.3348.8229-.8441.9507-1.4578.0603-.2838.063-.5762.0098-.8584.0937-.0856.1848-.1844.2679-.2993.2548-.3521.3868-.7873.3868-1.3104 0-.4763-.0832-.8692-.275-1.1992-.0285-.049-.0585-.0949-.0894-.1379.0118-.0209.0232-.0418.0343-.0625.1344-.2521.293-.6202.293-1.0397 0-.4243-.1056-.8217-.3393-1.1644-.2308-.33825-.5514-.57206-.8998-.73242-.6697-.30835-1.5453-.39151-2.4611-.38592zm-10.65381 2.12983h-1.34736c-.48657 0-.94021.2094-1.26507.5605-.32304.3492-.49546.8111-.49546 1.2817v6.9174c0 .4706.17242.9325.49546 1.2816.32486.3512.7785.5606 1.26507.5606h1.34736c.48657 0 .94021-.2094 1.26507-.5606.32304-.3491.49546-.811.49546-1.2816v-6.9174c0-.4706-.17242-.9325-.49546-1.2817-.32486-.3511-.7785-.5605-1.26507-.5605z" stroke="#505050" stroke-width="1.5"></path></svg>